<svg xmlns="http://www.w3.org/2000/svg" xmlns:xlink="http://www.w3.org/1999/xlink" xmlns:lucid="lucid" width="1000.17" height="890.28"><g transform="translate(0 0)" lucid:page-tab-id="0_0"><path d="M20 52.8c0-6.64 5.37-12 12-12h936.17c6.63 0 12 5.36 12 12v39.07c0 6.63-5.37 12-12 12H32c-6.63 0-12-5.37-12-12z" stroke="#000" stroke-opacity="0" stroke-width="2" fill="#fff" fill-opacity="0"/><use xlink:href="#a" transform="matrix(1,0,0,1,20.000000000000057,40.79196446164771) translate(214.6481481481481 37.333333333333336)"/><use xlink:href="#b" transform="matrix(1,0,0,1,20.000000000000057,40.79196446164771) translate(293.09259259259255 37.333333333333336)"/><use xlink:href="#c" transform="matrix(1,0,0,1,20.000000000000057,40.79196446164771) translate(407.0185185185185 37.333333333333336)"/><use xlink:href="#d" transform="matrix(1,0,0,1,20.000000000000057,40.79196446164771) translate(449.8333333333333 37.333333333333336)"/><use xlink:href="#e" transform="matrix(1,0,0,1,20.000000000000057,40.79196446164771) translate(638.4259259259259 37.333333333333336)"/><path d="M295.13 115.87c0-6.63 5.37-12 12-12h430c6.63 0 12 5.37 12 12v9.92c0 6.62-5.37 12-12 12h-430c-6.63 0-12-5.38-12-12z" stroke="#000" stroke-opacity="0" stroke-width="2" fill="#fff" fill-opacity="0"/><use xlink:href="#f" transform="matrix(1,0,0,1,295.13158420738176,103.86936285875765) translate(125.37345679012346 20.944444444444446)"/><use xlink:href="#g" transform="matrix(1,0,0,1,295.13158420738176,103.86936285875765) translate(165.94753086419752 20.944444444444446)"/><use xlink:href="#h" transform="matrix(1,0,0,1,295.13158420738176,103.86936285875765) translate(222.81172839506172 20.944444444444446)"/><use xlink:href="#i" transform="matrix(1,0,0,1,295.13158420738176,103.86936285875765) translate(235.47222222222223 20.944444444444446)"/><use xlink:href="#j" transform="matrix(1,0,0,1,295.13158420738176,103.86936285875765) translate(269.13271604938274 20.944444444444446)"/><use xlink:href="#k" transform="matrix(1,0,0,1,295.13158420738176,103.86936285875765) translate(295.05864197530866 20.944444444444446)"/><path d="M242.4 96.4h519.57M242.42 96.4h-1.03M761.94 96.4h1.03" stroke="#b2b2b2" stroke-width="2" fill="none"/><path d="M288.9 200h403.4v280H288.9z" stroke="#000" fill="#fff"/><path d="M288.9 238h403.4m-403.4 86h403.4" stroke="#000" fill="none"/><use xlink:href="#l" transform="matrix(1,0,0,1,296.9003832870483,200) translate(162.5 22.6)"/><use xlink:href="#m" transform="matrix(1,0,0,1,300.9003832870483,245.6) translate(0 17.5)"/><use xlink:href="#n" transform="matrix(1,0,0,1,300.9003832870483,245.6) translate(10.95 17.5)"/><use xlink:href="#o" transform="matrix(1,0,0,1,300.9003832870483,245.6) translate(69.85000000000001 17.5)"/><use xlink:href="#m" transform="matrix(1,0,0,1,300.9003832870483,245.6) translate(0 39.1)"/><use xlink:href="#p" transform="matrix(1,0,0,1,300.9003832870483,245.6) translate(10.95 39.1)"/><use xlink:href="#q" transform="matrix(1,0,0,1,300.9003832870483,245.6) translate(83.9 39.1)"/><use xlink:href="#m" transform="matrix(1,0,0,1,300.9003832870483,245.6) translate(0 60.7)"/><use xlink:href="#r" transform="matrix(1,0,0,1,300.9003832870483,245.6) translate(10.95 60.7)"/><use xlink:href="#s" transform="matrix(1,0,0,1,300.9003832870483,245.6) translate(116.75000000000001 60.7)"/><use xlink:href="#t" transform="matrix(1,0,0,1,300.9003832870483,332.11024734982334) translate(0 19.6)"/><use xlink:href="#u" transform="matrix(1,0,0,1,300.9003832870483,332.11024734982334) translate(15.5 19.6)"/><use xlink:href="#v" transform="matrix(1,0,0,1,300.9003832870483,332.11024734982334) translate(138.35000000000002 19.6)"/><use xlink:href="#t" transform="matrix(1,0,0,1,300.9003832870483,332.11024734982334) translate(0 41.2)"/><use xlink:href="#w" transform="matrix(1,0,0,1,300.9003832870483,332.11024734982334) translate(15.5 41.2)"/><use xlink:href="#x" transform="matrix(1,0,0,1,300.9003832870483,332.11024734982334) translate(129.20000000000002 41.2)"/><use xlink:href="#y" transform="matrix(1,0,0,1,300.9003832870483,332.11024734982334) translate(152.15 41.2)"/><use xlink:href="#t" transform="matrix(1,0,0,1,300.9003832870483,332.11024734982334) translate(0 62.800000000000004)"/><use xlink:href="#z" transform="matrix(1,0,0,1,300.9003832870483,332.11024734982334) translate(15.5 62.800000000000004)"/><use xlink:href="#t" transform="matrix(1,0,0,1,300.9003832870483,332.11024734982334) translate(0 84.40000000000002)"/><use xlink:href="#A" transform="matrix(1,0,0,1,300.9003832870483,332.11024734982334) translate(15.5 84.40000000000002)"/><use xlink:href="#B" transform="matrix(1,0,0,1,300.9003832870483,332.11024734982334) translate(142.15000000000003 84.40000000000002)"/><use xlink:href="#t" transform="matrix(1,0,0,1,300.9003832870483,332.11024734982334) translate(0 106.00000000000001)"/><use xlink:href="#C" transform="matrix(1,0,0,1,300.9003832870483,332.11024734982334) translate(15.5 106.00000000000001)"/><use xlink:href="#D" transform="matrix(1,0,0,1,300.9003832870483,332.11024734982334) translate(153.3 106.00000000000001)"/><use xlink:href="#q" transform="matrix(1,0,0,1,300.9003832870483,332.11024734982334) translate(206.3 106.00000000000001)"/><use xlink:href="#t" transform="matrix(1,0,0,1,300.9003832870483,332.11024734982334) translate(0 127.60000000000001)"/><use xlink:href="#E" transform="matrix(1,0,0,1,300.9003832870483,332.11024734982334) translate(15.5 127.60000000000001)"/><use xlink:href="#D" transform="matrix(1,0,0,1,300.9003832870483,332.11024734982334) translate(186.14999999999998 127.60000000000001)"/><use xlink:href="#s" transform="matrix(1,0,0,1,300.9003832870483,332.11024734982334) translate(239.14999999999998 127.60000000000001)"/><path d="M108.9 577.27h340v240h-340z" stroke="#000" fill="#fff"/><path d="M108.9 615h340m-340 64h340" stroke="#000" fill="none"/><g><use xlink:href="#F" transform="matrix(1,0,0,1,116.90038328704838,577.2717835768882) translate(100.025 22.6)"/></g><g><use xlink:href="#m" transform="matrix(1,0,0,1,120.90038328704838,622.8717835768882) translate(0 28.1)"/><use xlink:href="#G" transform="matrix(1,0,0,1,120.90038328704838,622.8717835768882) translate(10.95 28.1)"/><use xlink:href="#s" transform="matrix(1,0,0,1,120.90038328704838,622.8717835768882) translate(110.8 28.1)"/></g><g><use xlink:href="#t" transform="matrix(1,0,0,1,120.90038328704838,687.1474592525639) translate(0 43.5)"/><use xlink:href="#H" transform="matrix(1,0,0,1,120.90038328704838,687.1474592525639) translate(15.5 43.5)"/><use xlink:href="#I" transform="matrix(1,0,0,1,120.90038328704838,687.1474592525639) translate(194.29999999999998 43.5)"/><use xlink:href="#J" transform="matrix(1,0,0,1,120.90038328704838,687.1474592525639) translate(204.29999999999998 43.5)"/><use xlink:href="#I" transform="matrix(1,0,0,1,120.90038328704838,687.1474592525639) translate(243.25 43.5)"/><use xlink:href="#v" transform="matrix(1,0,0,1,120.90038328704838,687.1474592525639) translate(253.25 43.5)"/><use xlink:href="#t" transform="matrix(1,0,0,1,120.90038328704838,687.1474592525639) translate(0 65.10000000000001)"/><use xlink:href="#w" transform="matrix(1,0,0,1,120.90038328704838,687.1474592525639) translate(15.5 65.10000000000001)"/><use xlink:href="#K" transform="matrix(1,0,0,1,120.90038328704838,687.1474592525639) translate(129.20000000000002 65.10000000000001)"/><use xlink:href="#L" transform="matrix(1,0,0,1,120.90038328704838,687.1474592525639) translate(146.20000000000002 65.10000000000001)"/><use xlink:href="#y" transform="matrix(1,0,0,1,120.90038328704838,687.1474592525639) translate(157.15 65.10000000000001)"/><use xlink:href="#t" transform="matrix(1,0,0,1,120.90038328704838,687.1474592525639) translate(0 86.70000000000002)"/><use xlink:href="#M" transform="matrix(1,0,0,1,120.90038328704838,687.1474592525639) translate(15.5 86.70000000000002)"/></g><path d="M531.27 577.27h360v240h-360z" stroke="#000" fill="#fff"/><path d="M531.27 615h360m-360 64h360" stroke="#000" fill="none"/><g><use xlink:href="#N" transform="matrix(1,0,0,1,539.2738363598511,577.2717835768882) translate(104.025 22.6)"/></g><g><use xlink:href="#m" transform="matrix(1,0,0,1,543.2738363598511,622.8717835768882) translate(0 28.1)"/><use xlink:href="#O" transform="matrix(1,0,0,1,543.2738363598511,622.8717835768882) translate(10.95 28.1)"/><use xlink:href="#P" transform="matrix(1,0,0,1,543.2738363598511,622.8717835768882) translate(224.45 28.1)"/></g><g><use xlink:href="#t" transform="matrix(1,0,0,1,543.2738363598511,687.1474592525639) translate(0 43.5)"/><use xlink:href="#Q" transform="matrix(1,0,0,1,543.2738363598511,687.1474592525639) translate(15.5 43.5)"/><use xlink:href="#I" transform="matrix(1,0,0,1,543.2738363598511,687.1474592525639) translate(206.29999999999995 43.5)"/><use xlink:href="#J" transform="matrix(1,0,0,1,543.2738363598511,687.1474592525639) translate(216.29999999999995 43.5)"/><use xlink:href="#I" transform="matrix(1,0,0,1,543.2738363598511,687.1474592525639) translate(255.24999999999994 43.5)"/><use xlink:href="#R" transform="matrix(1,0,0,1,543.2738363598511,687.1474592525639) translate(265.24999999999994 43.5)"/><use xlink:href="#t" transform="matrix(1,0,0,1,543.2738363598511,687.1474592525639) translate(0 65.10000000000001)"/><use xlink:href="#w" transform="matrix(1,0,0,1,543.2738363598511,687.1474592525639) translate(15.5 65.10000000000001)"/><use xlink:href="#K" transform="matrix(1,0,0,1,543.2738363598511,687.1474592525639) translate(129.20000000000002 65.10000000000001)"/><use xlink:href="#L" transform="matrix(1,0,0,1,543.2738363598511,687.1474592525639) translate(146.20000000000002 65.10000000000001)"/><use xlink:href="#y" transform="matrix(1,0,0,1,543.2738363598511,687.1474592525639) translate(157.15 65.10000000000001)"/><use xlink:href="#t" transform="matrix(1,0,0,1,543.2738363598511,687.1474592525639) translate(0 86.70000000000002)"/><use xlink:href="#S" transform="matrix(1,0,0,1,543.2738363598511,687.1474592525639) translate(15.5 86.70000000000002)"/><use xlink:href="#T" transform="matrix(1,0,0,1,543.2738363598511,687.1474592525639) translate(137.15000000000003 86.70000000000002)"/></g><path d="M711.27 576.27v-47.63H508.6v-31.76" stroke="#000" fill="none"/><path d="M711.77 576.77h-1v-.5h1zM513.22 496.38h-9.27l4.64-14.26z"/><path d="M513.9 496.88h-10.64l5.33-16.38zm-9.26-1h7.9l-3.95-12.14z"/><path d="M278.9 576.27v-47.63h189.8v-31.76" stroke="#000" fill="none"/><path d="M279.4 576.77h-1v-.5h1zM473.32 496.38h-9.27l4.64-14.26z"/><path d="M474 496.88h-10.64l5.33-16.38zm-9.26-1h7.9l-3.95-12.14z"/><defs><path d="M67-125c0 53 21 87 73 88 37 1 54-22 65-47l45 17C233-25 199 4 140 4 58 4 20-42 15-125 8-235 124-281 211-232c18 10 29 29 36 50l-46 12c-8-25-30-41-62-41-52 0-71 34-72 86" id="U"/><path d="M25 0v-261h50V0H25" id="V"/><path d="M133-34C117-15 103 5 69 4 32 3 11-16 11-54c-1-60 55-63 116-61 1-26-3-47-28-47-18 1-26 9-28 27l-52-2c7-38 36-58 82-57s74 22 75 68l1 82c-1 14 12 18 25 15v27c-30 8-71 5-69-32zm-48 3c29 0 43-24 42-57-32 0-66-3-65 30 0 17 8 27 23 27" id="W"/><path d="M137-138c1-29-70-34-71-4 15 46 118 7 119 86 1 83-164 76-172 9l43-7c4 19 20 25 44 25 33 8 57-30 24-41C81-84 22-81 20-136c-2-80 154-74 161-7" id="X"/><g id="a"><use transform="matrix(0.07407407407407408,0,0,0.07407407407407408,0,0)" xlink:href="#U"/><use transform="matrix(0.07407407407407408,0,0,0.07407407407407408,19.185185185185187,0)" xlink:href="#V"/><use transform="matrix(0.07407407407407408,0,0,0.07407407407407408,26.592592592592595,0)" xlink:href="#W"/><use transform="matrix(0.07407407407407408,0,0,0.07407407407407408,41.40740740740741,0)" xlink:href="#X"/><use transform="matrix(0.07407407407407408,0,0,0.07407407407407408,56.22222222222223,0)" xlink:href="#X"/></g><path d="M24-248c120-7 223 5 221 122C244-46 201 0 124 0H24v-248zM76-40c74 7 117-18 117-86 0-67-45-88-117-82v168" id="Y"/><path d="M25-224v-37h50v37H25zM25 0v-190h50V0H25" id="Z"/><path d="M195-6C206 82 75 100 31 46c-4-6-6-13-8-21l49-6c3 16 16 24 34 25 40 0 42-37 40-79-11 22-30 35-61 35-53 0-70-43-70-97 0-56 18-96 73-97 30 0 46 14 59 34l2-30h47zm-90-29c32 0 41-27 41-63 0-35-9-62-40-62-32 0-39 29-40 63 0 36 9 62 39 62" id="aa"/><path d="M135-150c-39-12-60 13-60 57V0H25l-1-190h47c2 13-1 29 3 40 6-28 27-53 61-41v41" id="ab"/><path d="M220-157c-53 9-28 100-34 157h-49v-107c1-27-5-49-29-50C55-147 81-57 75 0H25l-1-190h47c2 12-1 28 3 38 10-53 101-56 108 0 13-22 24-43 59-42 82 1 51 116 57 194h-49v-107c-1-25-5-48-29-50" id="ac"/><g id="b"><use transform="matrix(0.07407407407407408,0,0,0.07407407407407408,0,0)" xlink:href="#Y"/><use transform="matrix(0.07407407407407408,0,0,0.07407407407407408,19.185185185185187,0)" xlink:href="#Z"/><use transform="matrix(0.07407407407407408,0,0,0.07407407407407408,26.592592592592595,0)" xlink:href="#W"/><use transform="matrix(0.07407407407407408,0,0,0.07407407407407408,41.40740740740741,0)" xlink:href="#aa"/><use transform="matrix(0.07407407407407408,0,0,0.07407407407407408,57.62962962962964,0)" xlink:href="#ab"/><use transform="matrix(0.07407407407407408,0,0,0.07407407407407408,68,0)" xlink:href="#W"/><use transform="matrix(0.07407407407407408,0,0,0.07407407407407408,82.81481481481481,0)" xlink:href="#ac"/></g><path d="M121-226c-27-7-43 5-38 36h38v33H83V0H34v-157H6v-33h28c-9-59 32-81 87-68v32" id="ad"/><path d="M110-194c64 0 96 36 96 99 0 64-35 99-97 99-61 0-95-36-95-99 0-62 34-99 96-99zm-1 164c35 0 45-28 45-65 0-40-10-65-43-65-34 0-45 26-45 65 0 36 10 65 43 65" id="ae"/><g id="c"><use transform="matrix(0.07407407407407408,0,0,0.07407407407407408,0,0)" xlink:href="#ad"/><use transform="matrix(0.07407407407407408,0,0,0.07407407407407408,8.814814814814817,0)" xlink:href="#ae"/><use transform="matrix(0.07407407407407408,0,0,0.07407407407407408,25.03703703703704,0)" xlink:href="#ab"/></g><path d="M199 0l-22-63H83L61 0H9l90-248h61L250 0h-51zm-33-102l-36-108c-10 38-24 72-36 108h72" id="af"/><path d="M190-63c-7 42-38 67-86 67-59 0-84-38-90-98-12-110 154-137 174-36l-49 2c-2-19-15-32-35-32-30 0-35 28-38 64-6 74 65 87 74 30" id="ag"/><path d="M85 4C-2 5 27-109 22-190h50c7 57-23 150 33 157 60-5 35-97 40-157h50l1 190h-47c-2-12 1-28-3-38-12 25-28 42-61 42" id="ah"/><path d="M135-194c87-1 58 113 63 194h-50c-7-57 23-157-34-157-59 0-34 97-39 157H25l-1-190h47c2 12-1 28 3 38 12-26 28-41 61-42" id="ai"/><path d="M115-3C79 11 28 4 28-45v-112H4v-33h27l15-45h31v45h36v33H77v99c-1 23 16 31 38 25v30" id="aj"/><path d="M136-208V0H84v-208H4v-40h212v40h-80" id="ak"/><path d="M123 10C108 53 80 86 19 72V37c35 8 53-11 59-39L3-190h52l48 148c12-52 28-100 44-148h51" id="al"/><path d="M135-194c53 0 70 44 70 98 0 56-19 98-73 100-31 1-45-17-59-34 3 33 2 69 2 105H25l-1-265h48c2 10 0 23 3 31 11-24 29-35 60-35zM114-30c33 0 39-31 40-66 0-38-9-64-40-64-56 0-55 130 0 130" id="am"/><path d="M185-48c-13 30-37 53-82 52C43 2 14-33 14-96s30-98 90-98c62 0 83 45 84 108H66c0 31 8 55 39 56 18 0 30-7 34-22zm-45-69c5-46-57-63-70-21-2 6-4 13-4 21h74" id="an"/><g id="d"><use transform="matrix(0.07407407407407408,0,0,0.07407407407407408,0,0)" xlink:href="#af"/><use transform="matrix(0.07407407407407408,0,0,0.07407407407407408,19.185185185185187,0)" xlink:href="#ag"/><use transform="matrix(0.07407407407407408,0,0,0.07407407407407408,34,0)" xlink:href="#ag"/><use transform="matrix(0.07407407407407408,0,0,0.07407407407407408,48.81481481481481,0)" xlink:href="#ae"/><use transform="matrix(0.07407407407407408,0,0,0.07407407407407408,65.03703703703704,0)" xlink:href="#ah"/><use transform="matrix(0.07407407407407408,0,0,0.07407407407407408,81.25925925925927,0)" xlink:href="#ai"/><use transform="matrix(0.07407407407407408,0,0,0.07407407407407408,97.4814814814815,0)" xlink:href="#aj"/><use transform="matrix(0.07407407407407408,0,0,0.07407407407407408,106.2962962962963,0)" xlink:href="#X"/><use transform="matrix(0.07407407407407408,0,0,0.07407407407407408,121.11111111111111,0)" xlink:href="#ak"/><use transform="matrix(0.07407407407407408,0,0,0.07407407407407408,135.33333333333334,0)" xlink:href="#al"/><use transform="matrix(0.07407407407407408,0,0,0.07407407407407408,150.14814814814815,0)" xlink:href="#am"/><use transform="matrix(0.07407407407407408,0,0,0.07407407407407408,166.37037037037038,0)" xlink:href="#an"/></g><g id="e"><use transform="matrix(0.07407407407407408,0,0,0.07407407407407408,0,0)" xlink:href="#am"/><use transform="matrix(0.07407407407407408,0,0,0.07407407407407408,16.222222222222225,0)" xlink:href="#ab"/><use transform="matrix(0.07407407407407408,0,0,0.07407407407407408,26.592592592592595,0)" xlink:href="#ae"/><use transform="matrix(0.07407407407407408,0,0,0.07407407407407408,42.814814814814824,0)" xlink:href="#aa"/><use transform="matrix(0.07407407407407408,0,0,0.07407407407407408,59.03703703703705,0)" xlink:href="#ab"/><use transform="matrix(0.07407407407407408,0,0,0.07407407407407408,69.40740740740742,0)" xlink:href="#W"/><use transform="matrix(0.07407407407407408,0,0,0.07407407407407408,84.22222222222223,0)" xlink:href="#ac"/></g><path fill="#b2b2b2" d="M233-177c-1 41-23 64-60 70L243 0h-38l-65-103H63V0H30v-248c88 3 205-21 203 71zM63-129c60-2 137 13 137-47 0-61-80-42-137-45v92" id="ao"/><path fill="#b2b2b2" d="M100-194c63 0 86 42 84 106H49c0 40 14 67 53 68 26 1 43-12 49-29l28 8c-11 28-37 45-77 45C44 4 14-33 15-96c1-61 26-98 85-98zm52 81c6-60-76-77-97-28-3 7-6 17-6 28h103" id="ap"/><path fill="#b2b2b2" d="M9 0v-24l116-142H16v-24h144v24L44-24h123V0H9" id="aq"/><path fill="#b2b2b2" d="M141-36C126-15 110 5 73 4 37 3 15-17 15-53c-1-64 63-63 125-63 3-35-9-54-41-54-24 1-41 7-42 31l-33-3c5-37 33-52 76-52 45 0 72 20 72 64v82c-1 20 7 32 28 27v20c-31 9-61-2-59-35zM48-53c0 20 12 33 32 33 41-3 63-29 60-74-43 2-92-5-92 41" id="ar"/><g id="f"><use transform="matrix(0.04320987654320988,0,0,0.04320987654320988,0,0)" xlink:href="#ao"/><use transform="matrix(0.04320987654320988,0,0,0.04320987654320988,11.19135802469136,0)" xlink:href="#ap"/><use transform="matrix(0.04320987654320988,0,0,0.04320987654320988,19.833333333333336,0)" xlink:href="#aq"/><use transform="matrix(0.04320987654320988,0,0,0.04320987654320988,27.611111111111114,0)" xlink:href="#ar"/></g><path fill="#b2b2b2" d="M106-169C34-169 62-67 57 0H25v-261h32l-1 103c12-21 28-36 61-36 89 0 53 116 60 194h-32v-121c2-32-8-49-39-48" id="as"/><path fill="#b2b2b2" d="M24-231v-30h32v30H24zM24 0v-190h32V0H24" id="at"/><path fill="#b2b2b2" d="M210-169c-67 3-38 105-44 169h-31v-121c0-29-5-50-35-48C34-165 62-65 56 0H25l-1-190h30c1 10-1 24 2 32 10-44 99-50 107 0 11-21 27-35 58-36 85-2 47 119 55 194h-31v-121c0-29-5-49-35-48" id="au"/><g id="g"><use transform="matrix(0.04320987654320988,0,0,0.04320987654320988,0,0)" xlink:href="#ao"/><use transform="matrix(0.04320987654320988,0,0,0.04320987654320988,11.19135802469136,0)" xlink:href="#ar"/><use transform="matrix(0.04320987654320988,0,0,0.04320987654320988,19.833333333333336,0)" xlink:href="#as"/><use transform="matrix(0.04320987654320988,0,0,0.04320987654320988,28.47530864197531,0)" xlink:href="#at"/><use transform="matrix(0.04320987654320988,0,0,0.04320987654320988,31.888888888888893,0)" xlink:href="#au"/><use transform="matrix(0.04320987654320988,0,0,0.04320987654320988,44.808641975308646,0)" xlink:href="#at"/></g><path fill="#b2b2b2" d="M32 76v-337h29V76H32" id="av"/><use transform="matrix(0.04320987654320988,0,0,0.04320987654320988,0,0)" xlink:href="#av" id="h"/><path fill="#b2b2b2" d="M240 0l2-218c-23 76-54 145-80 218h-23L58-218 59 0H30v-248h44l77 211c21-75 51-140 76-211h43V0h-30" id="aw"/><path fill="#b2b2b2" d="M179-190L93 31C79 59 56 82 12 73V49c39 6 53-20 64-50L1-190h34L92-34l54-156h33" id="ax"/><g id="i"><use transform="matrix(0.04320987654320988,0,0,0.04320987654320988,0,0)" xlink:href="#aw"/><use transform="matrix(0.04320987654320988,0,0,0.04320987654320988,12.919753086419755,0)" xlink:href="#ar"/><use transform="matrix(0.04320987654320988,0,0,0.04320987654320988,21.56172839506173,0)" xlink:href="#ax"/></g><path fill="#b2b2b2" d="M101-251c82-7 93 87 43 132L82-64C71-53 59-42 53-27h129V0H18c2-99 128-94 128-182 0-28-16-43-45-43s-46 15-49 41l-32-3c6-41 34-60 81-64" id="ay"/><path fill="#b2b2b2" d="M155-56V0h-30v-56H8v-25l114-167h33v167h35v25h-35zm-30-156c-27 46-58 90-88 131h88v-131" id="az"/><path fill="#b2b2b2" d="M68-38c1 34 0 65-14 84H32c9-13 17-26 17-46H33v-38h35" id="aA"/><g id="j"><use transform="matrix(0.04320987654320988,0,0,0.04320987654320988,0,0)" xlink:href="#ay"/><use transform="matrix(0.04320987654320988,0,0,0.04320987654320988,8.641975308641976,0)" xlink:href="#az"/><use transform="matrix(0.04320987654320988,0,0,0.04320987654320988,17.283950617283953,0)" xlink:href="#aA"/></g><path fill="#b2b2b2" d="M101-251c68 0 85 55 85 127S166 4 100 4C33 4 14-52 14-124c0-73 17-127 87-127zm-1 229c47 0 54-49 54-102s-4-102-53-102c-51 0-55 48-55 102 0 53 5 102 54 102" id="aB"/><path fill="#b2b2b2" d="M27 0v-27h64v-190l-56 39v-29l58-41h29v221h61V0H27" id="aC"/><path fill="#b2b2b2" d="M99-251c64 0 84 50 84 122C183-37 130 33 47-8c-14-7-20-23-25-40l30-5c6 39 69 39 84 7 9-19 16-44 16-74-10 22-31 35-62 35-49 0-73-33-73-83 0-54 28-83 82-83zm-1 141c31-1 51-18 51-49 0-36-14-67-51-67-34 0-49 23-49 58 0 34 15 58 49 58" id="aD"/><g id="k"><use transform="matrix(0.04320987654320988,0,0,0.04320987654320988,0,0)" xlink:href="#ay"/><use transform="matrix(0.04320987654320988,0,0,0.04320987654320988,8.641975308641976,0)" xlink:href="#aB"/><use transform="matrix(0.04320987654320988,0,0,0.04320987654320988,17.283950617283953,0)" xlink:href="#aC"/><use transform="matrix(0.04320987654320988,0,0,0.04320987654320988,25.925925925925927,0)" xlink:href="#aD"/></g><path d="M141-36C126-15 110 5 73 4 37 3 15-17 15-53c-1-64 63-63 125-63 3-35-9-54-41-54-24 1-41 7-42 31l-33-3c5-37 33-52 76-52 45 0 72 20 72 64v82c-1 20 7 32 28 27v20c-31 9-61-2-59-35zM48-53c0 20 12 33 32 33 41-3 63-29 60-74-43 2-92-5-92 41" id="aE"/><path d="M96-169c-40 0-48 33-48 73s9 75 48 75c24 0 41-14 43-38l32 2c-6 37-31 61-74 61-59 0-76-41-82-99-10-93 101-131 147-64 4 7 5 14 7 22l-32 3c-4-21-16-35-41-35" id="aF"/><path d="M100-194c62-1 85 37 85 99 1 63-27 99-86 99S16-35 15-95c0-66 28-99 85-99zM99-20c44 1 53-31 53-75 0-43-8-75-51-75s-53 32-53 75 10 74 51 75" id="aG"/><path d="M84 4C-5 8 30-112 23-190h32v120c0 31 7 50 39 49 72-2 45-101 50-169h31l1 190h-30c-1-10 1-25-2-33-11 22-28 36-60 37" id="aH"/><path d="M117-194c89-4 53 116 60 194h-32v-121c0-31-8-49-39-48C34-167 62-67 57 0H25l-1-190h30c1 10-1 24 2 32 11-22 29-35 61-36" id="aI"/><path d="M59-47c-2 24 18 29 38 22v24C64 9 27 4 27-40v-127H5v-23h24l9-43h21v43h35v23H59v120" id="aJ"/><g id="l"><use transform="matrix(0.05,0,0,0.05,0,0)" xlink:href="#aE"/><use transform="matrix(0.05,0,0,0.05,10,0)" xlink:href="#aF"/><use transform="matrix(0.05,0,0,0.05,19,0)" xlink:href="#aF"/><use transform="matrix(0.05,0,0,0.05,28,0)" xlink:href="#aG"/><use transform="matrix(0.05,0,0,0.05,38,0)" xlink:href="#aH"/><use transform="matrix(0.05,0,0,0.05,48,0)" xlink:href="#aI"/><use transform="matrix(0.05,0,0,0.05,58,0)" xlink:href="#aJ"/></g><path d="M16-82v-28h88v28H16" id="aK"/><use transform="matrix(0.05,0,0,0.05,0,0)" xlink:href="#aK" id="m"/><path d="M206 0h-36l-40-164L89 0H53L-1-190h32L70-26l43-164h34l41 164 42-164h31" id="aL"/><path d="M100-194c63 0 86 42 84 106H49c0 40 14 67 53 68 26 1 43-12 49-29l28 8c-11 28-37 45-77 45C44 4 14-33 15-96c1-61 26-98 85-98zm52 81c6-60-76-77-97-28-3 7-6 17-6 28h103" id="aM"/><path d="M114-163C36-179 61-72 57 0H25l-1-190h30c1 12-1 29 2 39 6-27 23-49 58-41v29" id="aN"/><path d="M33-154v-36h34v36H33zM33 0v-36h34V0H33" id="aO"/><g id="n"><use transform="matrix(0.05,0,0,0.05,0,0)" xlink:href="#aG"/><use transform="matrix(0.05,0,0,0.05,10,0)" xlink:href="#aL"/><use transform="matrix(0.05,0,0,0.05,22.950000000000003,0)" xlink:href="#aI"/><use transform="matrix(0.05,0,0,0.05,32.95,0)" xlink:href="#aM"/><use transform="matrix(0.05,0,0,0.05,42.95,0)" xlink:href="#aN"/><use transform="matrix(0.05,0,0,0.05,48.900000000000006,0)" xlink:href="#aO"/></g><path d="M135-143c-3-34-86-38-87 0 15 53 115 12 119 90S17 21 10-45l28-5c4 36 97 45 98 0-10-56-113-15-118-90-4-57 82-63 122-42 12 7 21 19 24 35" id="aP"/><path d="M24-231v-30h32v30H24zM24 0v-190h32V0H24" id="aQ"/><path d="M177-190C167-65 218 103 67 71c-23-6-38-20-44-43l32-5c15 47 100 32 89-28v-30C133-14 115 1 83 1 29 1 15-40 15-95c0-56 16-97 71-98 29-1 48 16 59 35 1-10 0-23 2-32h30zM94-22c36 0 50-32 50-73 0-42-14-75-50-75-39 0-46 34-46 75s6 73 46 73" id="aR"/><g id="o"><use transform="matrix(0.05,0,0,0.05,0,0)" xlink:href="#aP"/><use transform="matrix(0.05,0,0,0.05,9,0)" xlink:href="#aJ"/><use transform="matrix(0.05,0,0,0.05,14,0)" xlink:href="#aN"/><use transform="matrix(0.05,0,0,0.05,19.95,0)" xlink:href="#aQ"/><use transform="matrix(0.05,0,0,0.05,23.9,0)" xlink:href="#aI"/><use transform="matrix(0.05,0,0,0.05,33.9,0)" xlink:href="#aR"/></g><path d="M115-194c53 0 69 39 70 98 0 66-23 100-70 100C84 3 66-7 56-30L54 0H23l1-261h32v101c10-23 28-34 59-34zm-8 174c40 0 45-34 45-75 0-40-5-75-45-74-42 0-51 32-51 76 0 43 10 73 51 73" id="aS"/><path d="M24 0v-261h32V0H24" id="aT"/><g id="p"><use transform="matrix(0.05,0,0,0.05,0,0)" xlink:href="#aS"/><use transform="matrix(0.05,0,0,0.05,10,0)" xlink:href="#aE"/><use transform="matrix(0.05,0,0,0.05,20,0)" xlink:href="#aT"/><use transform="matrix(0.05,0,0,0.05,23.95,0)" xlink:href="#aE"/><use transform="matrix(0.05,0,0,0.05,33.95,0)" xlink:href="#aI"/><use transform="matrix(0.05,0,0,0.05,43.95,0)" xlink:href="#aF"/><use transform="matrix(0.05,0,0,0.05,52.95,0)" xlink:href="#aM"/><use transform="matrix(0.05,0,0,0.05,62.95,0)" xlink:href="#aO"/></g><path d="M101-234c-31-9-42 10-38 44h38v23H63V0H32v-167H5v-23h27c-7-52 17-82 69-68v24" id="aU"/><g id="q"><use transform="matrix(0.05,0,0,0.05,0,0)" xlink:href="#aU"/><use transform="matrix(0.05,0,0,0.05,5,0)" xlink:href="#aT"/><use transform="matrix(0.05,0,0,0.05,8.95,0)" xlink:href="#aG"/><use transform="matrix(0.05,0,0,0.05,18.95,0)" xlink:href="#aE"/><use transform="matrix(0.05,0,0,0.05,28.950000000000003,0)" xlink:href="#aJ"/></g><path d="M106-169C34-169 62-67 57 0H25v-261h32l-1 103c12-21 28-36 61-36 89 0 53 116 60 194h-32v-121c2-32-8-49-39-48" id="aV"/><path d="M85-194c31 0 48 13 60 33l-1-100h32l1 261h-30c-2-10 0-23-3-31C134-8 116 4 85 4 32 4 16-35 15-94c0-66 23-100 70-100zm9 24c-40 0-46 34-46 75 0 40 6 74 45 74 42 0 51-32 51-76 0-42-9-74-50-73" id="aW"/><g id="r"><use transform="matrix(0.05,0,0,0.05,0,0)" xlink:href="#aL"/><use transform="matrix(0.05,0,0,0.05,12.950000000000001,0)" xlink:href="#aQ"/><use transform="matrix(0.05,0,0,0.05,16.900000000000002,0)" xlink:href="#aJ"/><use transform="matrix(0.05,0,0,0.05,21.900000000000002,0)" xlink:href="#aV"/><use transform="matrix(0.05,0,0,0.05,31.900000000000002,0)" xlink:href="#aW"/><use transform="matrix(0.05,0,0,0.05,41.900000000000006,0)" xlink:href="#aN"/><use transform="matrix(0.05,0,0,0.05,47.85000000000001,0)" xlink:href="#aE"/><use transform="matrix(0.05,0,0,0.05,57.85,0)" xlink:href="#aL"/><use transform="matrix(0.05,0,0,0.05,70.80000000000001,0)" xlink:href="#aU"/><use transform="matrix(0.05,0,0,0.05,75.80000000000001,0)" xlink:href="#aM"/><use transform="matrix(0.05,0,0,0.05,85.80000000000001,0)" xlink:href="#aM"/><use transform="matrix(0.05,0,0,0.05,95.80000000000001,0)" xlink:href="#aO"/></g><g id="s"><use transform="matrix(0.05,0,0,0.05,0,0)" xlink:href="#aU"/><use transform="matrix(0.05,0,0,0.05,5,0)" xlink:href="#aT"/><use transform="matrix(0.05,0,0,0.05,8.95,0)" xlink:href="#aG"/><use transform="matrix(0.05,0,0,0.05,18.95,0)" xlink:href="#aE"/><use transform="matrix(0.05,0,0,0.05,28.950000000000003,0)" xlink:href="#aJ"/></g><path d="M118-107v75H92v-75H18v-26h74v-75h26v75h74v26h-74" id="aX"/><use transform="matrix(0.05,0,0,0.05,0,0)" xlink:href="#aX" id="t"/><path d="M87 75C49 33 22-17 22-94c0-76 28-126 65-167h31c-38 41-64 92-64 168S80 34 118 75H87" id="aY"/><path d="M68-38c1 34 0 65-14 84H32c9-13 17-26 17-46H33v-38h35" id="aZ"/><g id="u"><use transform="matrix(0.05,0,0,0.05,0,0)" xlink:href="#aE"/><use transform="matrix(0.05,0,0,0.05,10,0)" xlink:href="#aF"/><use transform="matrix(0.05,0,0,0.05,19,0)" xlink:href="#aF"/><use transform="matrix(0.05,0,0,0.05,28,0)" xlink:href="#aG"/><use transform="matrix(0.05,0,0,0.05,38,0)" xlink:href="#aH"/><use transform="matrix(0.05,0,0,0.05,48,0)" xlink:href="#aI"/><use transform="matrix(0.05,0,0,0.05,58,0)" xlink:href="#aJ"/><use transform="matrix(0.05,0,0,0.05,63,0)" xlink:href="#aY"/><use transform="matrix(0.05,0,0,0.05,68.95,0)" xlink:href="#aP"/><use transform="matrix(0.05,0,0,0.05,77.95,0)" xlink:href="#aJ"/><use transform="matrix(0.05,0,0,0.05,82.95,0)" xlink:href="#aN"/><use transform="matrix(0.05,0,0,0.05,88.9,0)" xlink:href="#aQ"/><use transform="matrix(0.05,0,0,0.05,92.85000000000001,0)" xlink:href="#aI"/><use transform="matrix(0.05,0,0,0.05,102.85000000000001,0)" xlink:href="#aR"/><use transform="matrix(0.05,0,0,0.05,112.85000000000001,0)" xlink:href="#aZ"/></g><path d="M33-261c38 41 65 92 65 168S71 34 33 75H2C39 34 66-17 66-93S39-220 2-261h31" id="ba"/><g id="v"><use transform="matrix(0.05,0,0,0.05,0,0)" xlink:href="#aU"/><use transform="matrix(0.05,0,0,0.05,5,0)" xlink:href="#aT"/><use transform="matrix(0.05,0,0,0.05,8.95,0)" xlink:href="#aG"/><use transform="matrix(0.05,0,0,0.05,18.95,0)" xlink:href="#aE"/><use transform="matrix(0.05,0,0,0.05,28.950000000000003,0)" xlink:href="#aJ"/><use transform="matrix(0.05,0,0,0.05,33.95,0)" xlink:href="#ba"/></g><path d="M210-169c-67 3-38 105-44 169h-31v-121c0-29-5-50-35-48C34-165 62-65 56 0H25l-1-190h30c1 10-1 24 2 32 10-44 99-50 107 0 11-21 27-35 58-36 85-2 47 119 55 194h-31v-121c0-29-5-49-35-48" id="bb"/><g id="w"><use transform="matrix(0.05,0,0,0.05,0,0)" xlink:href="#aL"/><use transform="matrix(0.05,0,0,0.05,12.950000000000001,0)" xlink:href="#aN"/><use transform="matrix(0.05,0,0,0.05,18.900000000000002,0)" xlink:href="#aQ"/><use transform="matrix(0.05,0,0,0.05,22.85,0)" xlink:href="#aJ"/><use transform="matrix(0.05,0,0,0.05,27.85,0)" xlink:href="#aM"/><use transform="matrix(0.05,0,0,0.05,37.85,0)" xlink:href="#aY"/><use transform="matrix(0.05,0,0,0.05,43.800000000000004,0)" xlink:href="#aG"/><use transform="matrix(0.05,0,0,0.05,53.800000000000004,0)" xlink:href="#aP"/><use transform="matrix(0.05,0,0,0.05,62.800000000000004,0)" xlink:href="#aJ"/><use transform="matrix(0.05,0,0,0.05,67.80000000000001,0)" xlink:href="#aN"/><use transform="matrix(0.05,0,0,0.05,73.75000000000001,0)" xlink:href="#aM"/><use transform="matrix(0.05,0,0,0.05,83.75000000000001,0)" xlink:href="#aE"/><use transform="matrix(0.05,0,0,0.05,93.75000000000001,0)" xlink:href="#bb"/></g><path d="M234-2c-28 10-62 0-77-18C117 19 8 12 13-65c3-43 29-61 60-76-25-40-17-114 47-108 35 3 59 15 59 50 0 44-40 53-71 69 14 26 32 50 51 72 14-21 24-43 30-72l26 8c-9 33-21 57-38 82 13 13 33 22 57 15v23zM97-151c25-10 52-18 56-48-1-18-13-29-33-29-42 0-39 50-23 77zM42-66c-3 51 71 58 98 28-20-24-41-51-56-80-23 10-40 24-42 52" id="bc"/><g id="x"><use transform="matrix(0.05,0,0,0.05,0,0)" xlink:href="#bc"/><use transform="matrix(0.05,0,0,0.05,12,0)" xlink:href="#ba"/></g><g id="y"><use transform="matrix(0.05,0,0,0.05,0,0)" xlink:href="#aF"/><use transform="matrix(0.05,0,0,0.05,9,0)" xlink:href="#aG"/><use transform="matrix(0.05,0,0,0.05,19,0)" xlink:href="#aI"/><use transform="matrix(0.05,0,0,0.05,29,0)" xlink:href="#aP"/><use transform="matrix(0.05,0,0,0.05,38,0)" xlink:href="#aJ"/></g><path d="M115-194c55 1 70 41 70 98S169 2 115 4C84 4 66-9 55-30l1 105H24l-1-265h31l2 30c10-21 28-34 59-34zm-8 174c40 0 45-34 45-75s-6-73-45-74c-42 0-51 32-51 76 0 43 10 73 51 73" id="bd"/><g id="z"><use transform="matrix(0.05,0,0,0.05,0,0)" xlink:href="#aW"/><use transform="matrix(0.05,0,0,0.05,10,0)" xlink:href="#aM"/><use transform="matrix(0.05,0,0,0.05,20,0)" xlink:href="#bd"/><use transform="matrix(0.05,0,0,0.05,30,0)" xlink:href="#aG"/><use transform="matrix(0.05,0,0,0.05,40,0)" xlink:href="#aP"/><use transform="matrix(0.05,0,0,0.05,49,0)" xlink:href="#aQ"/><use transform="matrix(0.05,0,0,0.05,52.95,0)" xlink:href="#aJ"/><use transform="matrix(0.05,0,0,0.05,57.95,0)" xlink:href="#aY"/><use transform="matrix(0.05,0,0,0.05,63.900000000000006,0)" xlink:href="#aU"/><use transform="matrix(0.05,0,0,0.05,68.9,0)" xlink:href="#aT"/><use transform="matrix(0.05,0,0,0.05,72.85000000000001,0)" xlink:href="#aG"/><use transform="matrix(0.05,0,0,0.05,82.85000000000001,0)" xlink:href="#aE"/><use transform="matrix(0.05,0,0,0.05,92.85000000000001,0)" xlink:href="#aJ"/><use transform="matrix(0.05,0,0,0.05,97.85000000000001,0)" xlink:href="#ba"/></g><g id="A"><use transform="matrix(0.05,0,0,0.05,0,0)" xlink:href="#aL"/><use transform="matrix(0.05,0,0,0.05,12.950000000000001,0)" xlink:href="#aQ"/><use transform="matrix(0.05,0,0,0.05,16.900000000000002,0)" xlink:href="#aJ"/><use transform="matrix(0.05,0,0,0.05,21.900000000000002,0)" xlink:href="#aV"/><use transform="matrix(0.05,0,0,0.05,31.900000000000002,0)" xlink:href="#aW"/><use transform="matrix(0.05,0,0,0.05,41.900000000000006,0)" xlink:href="#aN"/><use transform="matrix(0.05,0,0,0.05,47.85000000000001,0)" xlink:href="#aE"/><use transform="matrix(0.05,0,0,0.05,57.85,0)" xlink:href="#aL"/><use transform="matrix(0.05,0,0,0.05,70.80000000000001,0)" xlink:href="#aY"/><use transform="matrix(0.05,0,0,0.05,76.75000000000001,0)" xlink:href="#aU"/><use transform="matrix(0.05,0,0,0.05,81.75000000000001,0)" xlink:href="#aT"/><use transform="matrix(0.05,0,0,0.05,85.70000000000002,0)" xlink:href="#aG"/><use transform="matrix(0.05,0,0,0.05,95.70000000000002,0)" xlink:href="#aE"/><use transform="matrix(0.05,0,0,0.05,105.7,0)" xlink:href="#aJ"/><use transform="matrix(0.05,0,0,0.05,110.7,0)" xlink:href="#ba"/><use transform="matrix(0.05,0,0,0.05,116.65000000000003,0)" xlink:href="#aO"/></g><g id="B"><use transform="matrix(0.05,0,0,0.05,0,0)" xlink:href="#aS"/><use transform="matrix(0.05,0,0,0.05,10,0)" xlink:href="#aG"/><use transform="matrix(0.05,0,0,0.05,20,0)" xlink:href="#aG"/><use transform="matrix(0.05,0,0,0.05,30,0)" xlink:href="#aT"/></g><path d="M108 0H70L1-190h34L89-25l56-165h34" id="be"/><g id="C"><use transform="matrix(0.05,0,0,0.05,0,0)" xlink:href="#aR"/><use transform="matrix(0.05,0,0,0.05,10,0)" xlink:href="#aM"/><use transform="matrix(0.05,0,0,0.05,20,0)" xlink:href="#aJ"/><use transform="matrix(0.05,0,0,0.05,25,0)" xlink:href="#aS"/><use transform="matrix(0.05,0,0,0.05,35,0)" xlink:href="#aE"/><use transform="matrix(0.05,0,0,0.05,45,0)" xlink:href="#aT"/><use transform="matrix(0.05,0,0,0.05,48.95,0)" xlink:href="#aE"/><use transform="matrix(0.05,0,0,0.05,58.95,0)" xlink:href="#aI"/><use transform="matrix(0.05,0,0,0.05,68.95,0)" xlink:href="#aF"/><use transform="matrix(0.05,0,0,0.05,77.95,0)" xlink:href="#aM"/><use transform="matrix(0.05,0,0,0.05,87.95,0)" xlink:href="#aY"/><use transform="matrix(0.05,0,0,0.05,93.9,0)" xlink:href="#be"/><use transform="matrix(0.05,0,0,0.05,102.9,0)" xlink:href="#aG"/><use transform="matrix(0.05,0,0,0.05,112.9,0)" xlink:href="#aQ"/><use transform="matrix(0.05,0,0,0.05,116.85000000000001,0)" xlink:href="#aW"/><use transform="matrix(0.05,0,0,0.05,126.85000000000001,0)" xlink:href="#ba"/></g><g id="D"><use transform="matrix(0.05,0,0,0.05,0,0)" xlink:href="#aF"/><use transform="matrix(0.05,0,0,0.05,9,0)" xlink:href="#aG"/><use transform="matrix(0.05,0,0,0.05,19,0)" xlink:href="#aI"/><use transform="matrix(0.05,0,0,0.05,29,0)" xlink:href="#aP"/><use transform="matrix(0.05,0,0,0.05,38,0)" xlink:href="#aJ"/><use transform="matrix(0.05,0,0,0.05,43,0)" xlink:href="#aO"/></g><g id="E"><use transform="matrix(0.05,0,0,0.05,0,0)" xlink:href="#aR"/><use transform="matrix(0.05,0,0,0.05,10,0)" xlink:href="#aM"/><use transform="matrix(0.05,0,0,0.05,20,0)" xlink:href="#aJ"/><use transform="matrix(0.05,0,0,0.05,25,0)" xlink:href="#aL"/><use transform="matrix(0.05,0,0,0.05,37.95,0)" xlink:href="#aQ"/><use transform="matrix(0.05,0,0,0.05,41.900000000000006,0)" xlink:href="#aJ"/><use transform="matrix(0.05,0,0,0.05,46.900000000000006,0)" xlink:href="#aV"/><use transform="matrix(0.05,0,0,0.05,56.900000000000006,0)" xlink:href="#aW"/><use transform="matrix(0.05,0,0,0.05,66.9,0)" xlink:href="#aN"/><use transform="matrix(0.05,0,0,0.05,72.85000000000001,0)" xlink:href="#aE"/><use transform="matrix(0.05,0,0,0.05,82.85000000000001,0)" xlink:href="#aL"/><use transform="matrix(0.05,0,0,0.05,95.80000000000001,0)" xlink:href="#aU"/><use transform="matrix(0.05,0,0,0.05,100.80000000000001,0)" xlink:href="#aM"/><use transform="matrix(0.05,0,0,0.05,110.80000000000001,0)" xlink:href="#aM"/><use transform="matrix(0.05,0,0,0.05,120.80000000000001,0)" xlink:href="#aY"/><use transform="matrix(0.05,0,0,0.05,126.75,0)" xlink:href="#be"/><use transform="matrix(0.05,0,0,0.05,135.75,0)" xlink:href="#aG"/><use transform="matrix(0.05,0,0,0.05,145.75,0)" xlink:href="#aQ"/><use transform="matrix(0.05,0,0,0.05,149.7,0)" xlink:href="#aW"/><use transform="matrix(0.05,0,0,0.05,159.7,0)" xlink:href="#ba"/></g><g id="F"><use transform="matrix(0.05,0,0,0.05,0,0)" xlink:href="#aP"/><use transform="matrix(0.05,0,0,0.05,9,0)" xlink:href="#aE"/><use transform="matrix(0.05,0,0,0.05,19,0)" xlink:href="#be"/><use transform="matrix(0.05,0,0,0.05,28,0)" xlink:href="#aQ"/><use transform="matrix(0.05,0,0,0.05,31.950000000000003,0)" xlink:href="#aI"/><use transform="matrix(0.05,0,0,0.05,41.95,0)" xlink:href="#aR"/><use transform="matrix(0.05,0,0,0.05,51.95,0)" xlink:href="#aP"/><use transform="matrix(0.05,0,0,0.05,60.95,0)" xlink:href="#aE"/><use transform="matrix(0.05,0,0,0.05,70.95,0)" xlink:href="#aF"/><use transform="matrix(0.05,0,0,0.05,79.95,0)" xlink:href="#aF"/><use transform="matrix(0.05,0,0,0.05,88.95,0)" xlink:href="#aG"/><use transform="matrix(0.05,0,0,0.05,98.95,0)" xlink:href="#aH"/><use transform="matrix(0.05,0,0,0.05,108.95,0)" xlink:href="#aI"/><use transform="matrix(0.05,0,0,0.05,118.95,0)" xlink:href="#aJ"/></g><g id="G"><use transform="matrix(0.05,0,0,0.05,0,0)" xlink:href="#aQ"/><use transform="matrix(0.05,0,0,0.05,3.95,0)" xlink:href="#aI"/><use transform="matrix(0.05,0,0,0.05,13.949999999999998,0)" xlink:href="#aJ"/><use transform="matrix(0.05,0,0,0.05,18.95,0)" xlink:href="#aM"/><use transform="matrix(0.05,0,0,0.05,28.950000000000003,0)" xlink:href="#aN"/><use transform="matrix(0.05,0,0,0.05,34.9,0)" xlink:href="#aM"/><use transform="matrix(0.05,0,0,0.05,44.9,0)" xlink:href="#aP"/><use transform="matrix(0.05,0,0,0.05,53.900000000000006,0)" xlink:href="#aJ"/><use transform="matrix(0.05,0,0,0.05,58.900000000000006,0)" xlink:href="#aN"/><use transform="matrix(0.05,0,0,0.05,64.85,0)" xlink:href="#aE"/><use transform="matrix(0.05,0,0,0.05,74.85,0)" xlink:href="#aJ"/><use transform="matrix(0.05,0,0,0.05,79.85,0)" xlink:href="#aM"/><use transform="matrix(0.05,0,0,0.05,89.85,0)" xlink:href="#aO"/></g><g id="H"><use transform="matrix(0.05,0,0,0.05,0,0)" xlink:href="#aP"/><use transform="matrix(0.05,0,0,0.05,9,0)" xlink:href="#aE"/><use transform="matrix(0.05,0,0,0.05,19,0)" xlink:href="#be"/><use transform="matrix(0.05,0,0,0.05,28,0)" xlink:href="#aQ"/><use transform="matrix(0.05,0,0,0.05,31.950000000000003,0)" xlink:href="#aI"/><use transform="matrix(0.05,0,0,0.05,41.95,0)" xlink:href="#aR"/><use transform="matrix(0.05,0,0,0.05,51.95,0)" xlink:href="#aP"/><use transform="matrix(0.05,0,0,0.05,60.95,0)" xlink:href="#aE"/><use transform="matrix(0.05,0,0,0.05,70.95,0)" xlink:href="#aF"/><use transform="matrix(0.05,0,0,0.05,79.95,0)" xlink:href="#aF"/><use transform="matrix(0.05,0,0,0.05,88.95,0)" xlink:href="#aG"/><use transform="matrix(0.05,0,0,0.05,98.95,0)" xlink:href="#aH"/><use transform="matrix(0.05,0,0,0.05,108.95,0)" xlink:href="#aI"/><use transform="matrix(0.05,0,0,0.05,118.95,0)" xlink:href="#aJ"/><use transform="matrix(0.05,0,0,0.05,123.95,0)" xlink:href="#aY"/><use transform="matrix(0.05,0,0,0.05,129.9,0)" xlink:href="#aP"/><use transform="matrix(0.05,0,0,0.05,138.9,0)" xlink:href="#aJ"/><use transform="matrix(0.05,0,0,0.05,143.9,0)" xlink:href="#aN"/><use transform="matrix(0.05,0,0,0.05,149.85,0)" xlink:href="#aQ"/><use transform="matrix(0.05,0,0,0.05,153.79999999999998,0)" xlink:href="#aI"/><use transform="matrix(0.05,0,0,0.05,163.79999999999998,0)" xlink:href="#aR"/></g><use transform="matrix(0.05,0,0,0.05,0,0)" xlink:href="#aZ" id="I"/><g id="J"><use transform="matrix(0.05,0,0,0.05,0,0)" xlink:href="#aU"/><use transform="matrix(0.05,0,0,0.05,5,0)" xlink:href="#aT"/><use transform="matrix(0.05,0,0,0.05,8.95,0)" xlink:href="#aG"/><use transform="matrix(0.05,0,0,0.05,18.95,0)" xlink:href="#aE"/><use transform="matrix(0.05,0,0,0.05,28.950000000000003,0)" xlink:href="#aJ"/></g><use transform="matrix(0.05,0,0,0.05,0,0)" xlink:href="#bc" id="K"/><use transform="matrix(0.05,0,0,0.05,0,0)" xlink:href="#ba" id="L"/><g id="M"><use transform="matrix(0.05,0,0,0.05,0,0)" xlink:href="#aE"/><use transform="matrix(0.05,0,0,0.05,10,0)" xlink:href="#aW"/><use transform="matrix(0.05,0,0,0.05,20,0)" xlink:href="#aW"/><use transform="matrix(0.05,0,0,0.05,30,0)" xlink:href="#aQ"/><use transform="matrix(0.05,0,0,0.05,33.95,0)" xlink:href="#aI"/><use transform="matrix(0.05,0,0,0.05,43.95,0)" xlink:href="#aJ"/><use transform="matrix(0.05,0,0,0.05,48.95,0)" xlink:href="#aM"/><use transform="matrix(0.05,0,0,0.05,58.95,0)" xlink:href="#aN"/><use transform="matrix(0.05,0,0,0.05,64.9,0)" xlink:href="#aM"/><use transform="matrix(0.05,0,0,0.05,74.9,0)" xlink:href="#aP"/><use transform="matrix(0.05,0,0,0.05,83.9,0)" xlink:href="#aJ"/><use transform="matrix(0.05,0,0,0.05,88.9,0)" xlink:href="#aY"/><use transform="matrix(0.05,0,0,0.05,94.85000000000001,0)" xlink:href="#be"/><use transform="matrix(0.05,0,0,0.05,103.85000000000001,0)" xlink:href="#aG"/><use transform="matrix(0.05,0,0,0.05,113.85000000000001,0)" xlink:href="#aQ"/><use transform="matrix(0.05,0,0,0.05,117.80000000000001,0)" xlink:href="#aW"/><use transform="matrix(0.05,0,0,0.05,127.80000000000001,0)" xlink:href="#ba"/></g><path d="M145-31C134-9 116 4 85 4 32 4 16-35 15-94c0-59 17-99 70-100 32-1 48 14 60 33 0-11-1-24 2-32h30l-1 268h-32zM93-21c41 0 51-33 51-76s-8-73-50-73c-40 0-46 35-46 75s5 74 45 74" id="bf"/><g id="N"><use transform="matrix(0.05,0,0,0.05,0,0)" xlink:href="#aF"/><use transform="matrix(0.05,0,0,0.05,9,0)" xlink:href="#aV"/><use transform="matrix(0.05,0,0,0.05,19,0)" xlink:href="#aM"/><use transform="matrix(0.05,0,0,0.05,29,0)" xlink:href="#bf"/><use transform="matrix(0.05,0,0,0.05,39,0)" xlink:href="#aH"/><use transform="matrix(0.05,0,0,0.05,49,0)" xlink:href="#aQ"/><use transform="matrix(0.05,0,0,0.05,52.95,0)" xlink:href="#aI"/><use transform="matrix(0.05,0,0,0.05,62.95,0)" xlink:href="#aR"/><use transform="matrix(0.05,0,0,0.05,72.95,0)" xlink:href="#aE"/><use transform="matrix(0.05,0,0,0.05,82.95,0)" xlink:href="#aF"/><use transform="matrix(0.05,0,0,0.05,91.95,0)" xlink:href="#aF"/><use transform="matrix(0.05,0,0,0.05,100.95,0)" xlink:href="#aG"/><use transform="matrix(0.05,0,0,0.05,110.95,0)" xlink:href="#aH"/><use transform="matrix(0.05,0,0,0.05,120.95,0)" xlink:href="#aI"/><use transform="matrix(0.05,0,0,0.05,130.95,0)" xlink:href="#aJ"/></g><g id="O"><use transform="matrix(0.05,0,0,0.05,0,0)" xlink:href="#aN"/><use transform="matrix(0.05,0,0,0.05,5.95,0)" xlink:href="#aM"/><use transform="matrix(0.05,0,0,0.05,15.949999999999998,0)" xlink:href="#bb"/><use transform="matrix(0.05,0,0,0.05,30.899999999999995,0)" xlink:href="#aE"/><use transform="matrix(0.05,0,0,0.05,40.9,0)" xlink:href="#aQ"/><use transform="matrix(0.05,0,0,0.05,44.85,0)" xlink:href="#aI"/><use transform="matrix(0.05,0,0,0.05,54.85,0)" xlink:href="#aQ"/><use transform="matrix(0.05,0,0,0.05,58.800000000000004,0)" xlink:href="#aI"/><use transform="matrix(0.05,0,0,0.05,68.80000000000001,0)" xlink:href="#aR"/><use transform="matrix(0.05,0,0,0.05,78.80000000000001,0)" xlink:href="#aU"/><use transform="matrix(0.05,0,0,0.05,83.80000000000001,0)" xlink:href="#aN"/><use transform="matrix(0.05,0,0,0.05,89.75000000000001,0)" xlink:href="#aM"/><use transform="matrix(0.05,0,0,0.05,99.75000000000001,0)" xlink:href="#aM"/><use transform="matrix(0.05,0,0,0.05,109.75,0)" xlink:href="#aL"/><use transform="matrix(0.05,0,0,0.05,122.7,0)" xlink:href="#aQ"/><use transform="matrix(0.05,0,0,0.05,126.65000000000003,0)" xlink:href="#aJ"/><use transform="matrix(0.05,0,0,0.05,131.65000000000003,0)" xlink:href="#aV"/><use transform="matrix(0.05,0,0,0.05,141.65000000000003,0)" xlink:href="#aW"/><use transform="matrix(0.05,0,0,0.05,151.65000000000003,0)" xlink:href="#aN"/><use transform="matrix(0.05,0,0,0.05,157.60000000000002,0)" xlink:href="#aE"/><use transform="matrix(0.05,0,0,0.05,167.60000000000002,0)" xlink:href="#aL"/><use transform="matrix(0.05,0,0,0.05,180.55,0)" xlink:href="#aE"/><use transform="matrix(0.05,0,0,0.05,190.55,0)" xlink:href="#aT"/><use transform="matrix(0.05,0,0,0.05,194.5,0)" xlink:href="#aP"/><use transform="matrix(0.05,0,0,0.05,203.5,0)" xlink:href="#aO"/></g><g id="P"><use transform="matrix(0.05,0,0,0.05,0,0)" xlink:href="#aQ"/><use transform="matrix(0.05,0,0,0.05,3.95,0)" xlink:href="#aI"/><use transform="matrix(0.05,0,0,0.05,13.949999999999998,0)" xlink:href="#aJ"/></g><g id="Q"><use transform="matrix(0.05,0,0,0.05,0,0)" xlink:href="#aF"/><use transform="matrix(0.05,0,0,0.05,9,0)" xlink:href="#aV"/><use transform="matrix(0.05,0,0,0.05,19,0)" xlink:href="#aM"/><use transform="matrix(0.05,0,0,0.05,29,0)" xlink:href="#bf"/><use transform="matrix(0.05,0,0,0.05,39,0)" xlink:href="#aH"/><use transform="matrix(0.05,0,0,0.05,49,0)" xlink:href="#aQ"/><use transform="matrix(0.05,0,0,0.05,52.95,0)" xlink:href="#aI"/><use transform="matrix(0.05,0,0,0.05,62.95,0)" xlink:href="#aR"/><use transform="matrix(0.05,0,0,0.05,72.95,0)" xlink:href="#aE"/><use transform="matrix(0.05,0,0,0.05,82.95,0)" xlink:href="#aF"/><use transform="matrix(0.05,0,0,0.05,91.95,0)" xlink:href="#aF"/><use transform="matrix(0.05,0,0,0.05,100.95,0)" xlink:href="#aG"/><use transform="matrix(0.05,0,0,0.05,110.95,0)" xlink:href="#aH"/><use transform="matrix(0.05,0,0,0.05,120.95,0)" xlink:href="#aI"/><use transform="matrix(0.05,0,0,0.05,130.95,0)" xlink:href="#aJ"/><use transform="matrix(0.05,0,0,0.05,135.95,0)" xlink:href="#aY"/><use transform="matrix(0.05,0,0,0.05,141.89999999999998,0)" xlink:href="#aP"/><use transform="matrix(0.05,0,0,0.05,150.89999999999998,0)" xlink:href="#aJ"/><use transform="matrix(0.05,0,0,0.05,155.89999999999998,0)" xlink:href="#aN"/><use transform="matrix(0.05,0,0,0.05,161.84999999999997,0)" xlink:href="#aQ"/><use transform="matrix(0.05,0,0,0.05,165.79999999999995,0)" xlink:href="#aI"/><use transform="matrix(0.05,0,0,0.05,175.79999999999995,0)" xlink:href="#aR"/></g><g id="R"><use transform="matrix(0.05,0,0,0.05,0,0)" xlink:href="#aQ"/><use transform="matrix(0.05,0,0,0.05,3.95,0)" xlink:href="#aI"/><use transform="matrix(0.05,0,0,0.05,13.949999999999998,0)" xlink:href="#aJ"/><use transform="matrix(0.05,0,0,0.05,18.95,0)" xlink:href="#ba"/></g><g id="S"><use transform="matrix(0.05,0,0,0.05,0,0)" xlink:href="#aL"/><use transform="matrix(0.05,0,0,0.05,12.950000000000001,0)" xlink:href="#aQ"/><use transform="matrix(0.05,0,0,0.05,16.900000000000002,0)" xlink:href="#aJ"/><use transform="matrix(0.05,0,0,0.05,21.900000000000002,0)" xlink:href="#aV"/><use transform="matrix(0.05,0,0,0.05,31.900000000000002,0)" xlink:href="#aW"/><use transform="matrix(0.05,0,0,0.05,41.900000000000006,0)" xlink:href="#aN"/><use transform="matrix(0.05,0,0,0.05,47.85000000000001,0)" xlink:href="#aE"/><use transform="matrix(0.05,0,0,0.05,57.85,0)" xlink:href="#aL"/><use transform="matrix(0.05,0,0,0.05,70.80000000000001,0)" xlink:href="#aY"/><use transform="matrix(0.05,0,0,0.05,76.75000000000001,0)" xlink:href="#aU"/><use transform="matrix(0.05,0,0,0.05,81.75000000000001,0)" xlink:href="#aT"/><use transform="matrix(0.05,0,0,0.05,85.70000000000002,0)" xlink:href="#aG"/><use transform="matrix(0.05,0,0,0.05,95.70000000000002,0)" xlink:href="#aE"/><use transform="matrix(0.05,0,0,0.05,105.7,0)" xlink:href="#aJ"/><use transform="matrix(0.05,0,0,0.05,110.7,0)" xlink:href="#ba"/></g><g id="T"><use transform="matrix(0.05,0,0,0.05,0,0)" xlink:href="#aS"/><use transform="matrix(0.05,0,0,0.05,10,0)" xlink:href="#aG"/><use transform="matrix(0.05,0,0,0.05,20,0)" xlink:href="#aG"/><use transform="matrix(0.05,0,0,0.05,30,0)" xlink:href="#aT"/></g></defs></g></svg>